<mxfile host="app.diagrams.net" modified="2024-07-08T12:00:28.425Z" agent="Mozilla/5.0 (Windows NT 10.0; Win64; x64) AppleWebKit/537.36 (KHTML, like Gecko) Chrome/126.0.0.0 Safari/537.36" etag="BtaDbyvf_oeLPZg7JRwN" version="24.6.4" type="device">
  <diagram name="Page-1" id="d2C_YFTPG1R52y7XktIg">
    <mxGraphModel dx="2074" dy="1106" grid="1" gridSize="10" guides="1" tooltips="1" connect="1" arrows="1" fold="1" page="1" pageScale="1" pageWidth="850" pageHeight="1100" math="0" shadow="0">
      <root>
        <mxCell id="0" />
        <mxCell id="1" parent="0" />
        <mxCell id="JHEULPK_qRH4gu8c7Myj-1" value="" style="rounded=1;whiteSpace=wrap;html=1;" vertex="1" parent="1">
          <mxGeometry x="75" y="50" width="340" height="270" as="geometry" />
        </mxCell>
        <mxCell id="JHEULPK_qRH4gu8c7Myj-2" value="" style="rounded=1;whiteSpace=wrap;html=1;" vertex="1" parent="1">
          <mxGeometry x="475" y="50" width="330" height="270" as="geometry" />
        </mxCell>
        <mxCell id="JHEULPK_qRH4gu8c7Myj-5" value="" style="rounded=1;whiteSpace=wrap;html=1;" vertex="1" parent="1">
          <mxGeometry x="170" y="70" width="150" height="70" as="geometry" />
        </mxCell>
        <mxCell id="JHEULPK_qRH4gu8c7Myj-3" value="frontEnd App(Amplify)" style="text;html=1;align=center;verticalAlign=middle;whiteSpace=wrap;rounded=0;" vertex="1" parent="1">
          <mxGeometry x="170" y="80" width="150" height="50" as="geometry" />
        </mxCell>
        <mxCell id="JHEULPK_qRH4gu8c7Myj-6" value="" style="rounded=1;whiteSpace=wrap;html=1;" vertex="1" parent="1">
          <mxGeometry x="570" y="70" width="140" height="70" as="geometry" />
        </mxCell>
        <mxCell id="JHEULPK_qRH4gu8c7Myj-7" value="backEnd App(EC2)" style="text;html=1;align=center;verticalAlign=middle;whiteSpace=wrap;rounded=0;" vertex="1" parent="1">
          <mxGeometry x="570" y="80" width="150" height="50" as="geometry" />
        </mxCell>
        <mxCell id="JHEULPK_qRH4gu8c7Myj-8" value="" style="rounded=1;whiteSpace=wrap;html=1;" vertex="1" parent="1">
          <mxGeometry x="170" y="180" width="140" height="70" as="geometry" />
        </mxCell>
        <mxCell id="JHEULPK_qRH4gu8c7Myj-9" value="chatbot page" style="text;html=1;align=center;verticalAlign=middle;whiteSpace=wrap;rounded=0;" vertex="1" parent="1">
          <mxGeometry x="170" y="190" width="150" height="50" as="geometry" />
        </mxCell>
        <mxCell id="JHEULPK_qRH4gu8c7Myj-10" value="" style="rounded=1;whiteSpace=wrap;html=1;" vertex="1" parent="1">
          <mxGeometry x="585" y="190" width="120" height="60" as="geometry" />
        </mxCell>
        <mxCell id="JHEULPK_qRH4gu8c7Myj-11" value="order(DynamoDb)" style="text;html=1;align=center;verticalAlign=middle;whiteSpace=wrap;rounded=0;" vertex="1" parent="1">
          <mxGeometry x="570" y="190" width="150" height="50" as="geometry" />
        </mxCell>
        <mxCell id="JHEULPK_qRH4gu8c7Myj-12" value="" style="rounded=1;whiteSpace=wrap;html=1;" vertex="1" parent="1">
          <mxGeometry x="530" y="360" width="210" height="150" as="geometry" />
        </mxCell>
        <mxCell id="JHEULPK_qRH4gu8c7Myj-13" value="orderSchema:&lt;div&gt;&lt;ul&gt;&lt;li&gt;id&lt;/li&gt;&lt;li&gt;orderStatus&lt;/li&gt;&lt;/ul&gt;&lt;/div&gt;&lt;div&gt;&lt;br&gt;&lt;div&gt;&lt;br&gt;&lt;/div&gt;&lt;div&gt;&lt;br&gt;&lt;/div&gt;&lt;/div&gt;" style="text;html=1;align=left;verticalAlign=middle;whiteSpace=wrap;rounded=0;" vertex="1" parent="1">
          <mxGeometry x="550" y="380" width="220" height="150" as="geometry" />
        </mxCell>
        <mxCell id="JHEULPK_qRH4gu8c7Myj-17" value="" style="endArrow=classic;startArrow=classic;html=1;rounded=0;exitX=1;exitY=0.5;exitDx=0;exitDy=0;" edge="1" parent="1" source="JHEULPK_qRH4gu8c7Myj-1">
          <mxGeometry width="50" height="50" relative="1" as="geometry">
            <mxPoint x="400" y="390" as="sourcePoint" />
            <mxPoint x="480" y="185" as="targetPoint" />
          </mxGeometry>
        </mxCell>
        <mxCell id="JHEULPK_qRH4gu8c7Myj-18" value="" style="endArrow=classic;startArrow=classic;html=1;rounded=0;exitX=0.46;exitY=0;exitDx=0;exitDy=0;exitPerimeter=0;entryX=0.5;entryY=1;entryDx=0;entryDy=0;" edge="1" parent="1" source="JHEULPK_qRH4gu8c7Myj-11" target="JHEULPK_qRH4gu8c7Myj-6">
          <mxGeometry width="50" height="50" relative="1" as="geometry">
            <mxPoint x="560" y="162.32999999999998" as="sourcePoint" />
            <mxPoint x="640" y="140" as="targetPoint" />
          </mxGeometry>
        </mxCell>
      </root>
    </mxGraphModel>
  </diagram>
</mxfile>
